<?xml version="1.0" standalone="no"?>
<!DOCTYPE svg PUBLIC "-//W3C//DTD SVG 20010904//EN" "http://www.w3.org/TR/2001/REC-SVG-20010904/DTD/svg10.dtd">
<!-- Created using Karbon, part of Calligra: http://www.calligra.org/karbon -->
<svg xmlns="http://www.w3.org/2000/svg" xmlns:xlink="http://www.w3.org/1999/xlink" width="38.4pt" height="38.4pt">
<defs/>
<g id="layer0">
  <path id="path4064" transform="matrix(1 0 0 -1 0.180185 47.8198)" fill="#ecf0f1" d="M47.6359 23.3995C47.4045 10.2873 36.6177 -0.171427 23.5045 0.00212916C10.3914 0.175685 -0.11476 10.9162 0.000946607 24.03C0.116653 37.1438 10.8107 47.6972 23.9248 47.6394C37.0391 47.5816 47.6396 36.9341 47.6396 23.8198"/>
  <path id="circle3331" transform="matrix(1 0 0 -1 3.75315 44.2468)" fill="#e74c3c" d="M40.4892 19.8251C40.2572 8.6867 31.0701 -0.17153 19.9305 0.00252154C8.79104 0.176574 -0.114916 9.31751 0.00112113 20.4577C0.117158 31.598 9.21158 40.5514 20.3523 40.4934C31.493 40.4354 40.4937 31.3877 40.4937 20.2468"/>
  <path id="path4096" transform="translate(10.3449, 10.0618)" fill="#ecf0f1" d="M13.6551 0C6.09017 0 0 6.09017 0 13.6551C0 21.22 6.09017 27.3102 13.6551 27.3102C21.22 27.3102 27.3102 21.22 27.3102 13.6551C27.3102 6.09017 21.22 0 13.6551 0ZM13.6551 3.64137C19.2027 3.64137 23.6689 8.1075 23.6689 13.6551C23.6689 19.2027 19.2027 23.6689 13.6551 23.6689C8.1075 23.6689 3.64137 19.2027 3.64137 13.6551C3.64137 8.1075 8.1075 3.64137 13.6551 3.64137ZM11.8344 8.64824L11.8344 18.662L15.4758 18.662L15.4758 8.64824Z"/>
 </g>
</svg>
